/vscmnt/brussel_pixiu_data/_data_brussel/112/vsc11236/PredSimResults/SUBJ11opt3D/trackIG/worker_13.mot
version=1
nRows=9
nColumns=50
inDegrees=yes
endheader
                time	         pelvis_tilt	         pelvis_list	     pelvis_rotation	           pelvis_tx	           pelvis_ty	           pelvis_tz	       hip_flexion_r	     hip_adduction_r	      hip_rotation_r	        knee_angle_r	       ankle_angle_r	         mtp_angle_r	       hip_flexion_l	     hip_adduction_l	      hip_rotation_l	        knee_angle_l	       ankle_angle_l	         mtp_angle_l	    lumbar_extension	      lumbar_bending	     lumbar_rotation	 ercspn_r/activation	 intobl_r/activation	 extobl_r/activation	    abd_r/activation	    add_r/activation	hamstrings_r/activation	bifemsh_r/activation	glut_max_r/activation	iliopsoas_r/activation	rect_fem_r/activation	  vasti_r/activation	gastroc_r/activation	 soleus_r/activation	tib_ant_r/activation	 ercspn_l/activation	 intobl_l/activation	 extobl_l/activation	    abd_l/activation	    add_l/activation	hamstrings_l/activation	bifemsh_l/activation	glut_max_l/activation	iliopsoas_l/activation	rect_fem_l/activation	  vasti_l/activation	gastroc_l/activation	 soleus_l/activation	tib_ant_l/activation	
          0.49288763	         -8.66626624	          4.66063116	         -8.86440867	          0.88719774	          0.91898729	          0.00590881	        -13.87895004	         -5.98225357	          1.77694447	        -12.79757910	          5.10714911	         41.85521381	         39.01649611	          0.22012678	         -8.62951332	         -9.47764060	          4.42248296	          0.35653857	        -10.79980281	         -3.74703061	          4.43163577	          0.04234971	          0.01000000	          0.01000002	          0.02139569	          0.18857114	          0.02491034	          0.30039016	          0.01837609	          0.69715754	          0.01000001	          0.01164294	          0.18723903	          0.25558604	          0.01429784	          0.09729447	          0.19154138	          0.01355579	          0.02029200	          0.45235240	          0.12175426	          0.30937679	          0.20360966	          0.13815141	          0.02244639	          0.00999999	          0.01578304	          0.01071310	          0.70600774	
          0.50274538	         -8.61014600	          4.71697455	         -8.95976103	          0.90933475	          0.91659867	          0.00541115	        -14.16323563	         -6.21669583	          1.42591310	        -14.55859236	          3.63581277	         43.90707285	         38.99343967	          0.35144283	         -8.80286006	        -11.57634950	          3.47834835	          0.30449902	        -10.30544583	         -3.99465309	          4.64683387	          0.10878901	          0.01000000	          0.01000000	          0.01837650	          0.26980357	          0.02139520	          0.25800183	          0.01578300	          0.81725471	          0.01000000	          0.00999999	          0.16081739	          0.21951984	          0.01228025	          0.08356509	          0.26032302	          0.01164291	          0.09007186	          0.50546604	          0.10457330	          0.26572008	          0.33482742	          0.11865661	          0.01927895	          0.00999999	          0.01355587	          0.01164295	          0.82259523	
          0.51260314	         -8.53209745	          4.75737588	         -8.99427187	          0.93137905	          0.91445765	          0.00484995	        -14.01961151	         -6.41781840	          1.06679269	        -17.10662516	          2.22602096	         45.54492560	         38.84735785	          0.47507173	         -8.88597981	        -13.68980755	          2.87327452	          0.23543074	         -9.85126906	         -4.23238253	          4.81212203	          0.12207458	          0.00999999	          0.01000003	          0.01578336	          0.23173113	          0.01837609	          0.22159476	          0.01355584	          0.87566924	          0.01000000	          0.00999999	          0.13812416	          0.18854300	          0.01054736	          0.09452215	          0.22358838	          0.00999999	          0.20876483	          0.49555194	          0.08981678	          0.22822384	          0.41656119	          0.10191277	          0.01655848	          0.00999999	          0.01164298	          0.00999999	          0.89294803	
          0.52246089	         -8.43358873	          4.79682170	         -8.96294731	          0.95298932	          0.91280017	          0.00419352	        -13.34729876	         -6.60991891	          0.71712318	        -20.57382816	          0.93751852	         46.39329982	         38.72105234	          0.62236823	         -8.95987739	        -15.79685121	          2.12063878	          0.19021840	         -9.47909089	         -4.48073227	          4.91526182	          0.17086753	          0.00999999	          0.01000000	          0.01355614	          0.22690199	          0.01578301	          0.19032515	          0.01164295	          0.75210199	          0.01000000	          0.00999999	          0.11863321	          0.16193736	          0.00999999	          0.13208084	          0.19203743	          0.01000000	          0.23613900	          0.48909537	          0.07714258	          0.19601877	          0.43480475	          0.08753167	          0.01422190	          0.04508220	          0.01000002	          0.00999999	          0.93540126	
          0.53231864	         -8.31511322	          4.84452898	         -8.87519781	          0.97407457	          0.91172233	          0.00347539	        -12.16182610	         -6.81145007	          0.40341155	        -24.85487159	         -0.44950947	         46.50408828	         38.66012043	          0.79374870	         -9.01304226	        -18.01052854	          1.50046700	          0.10524197	         -9.19215067	         -4.75392867	          4.95808995	          0.25470167	          0.00999999	          0.01000000	          0.01164321	          0.24815078	          0.01355584	          0.16444365	          0.00999999	          0.64597153	          0.01000000	          0.00999999	          0.10189267	          0.13908609	          0.00999999	          0.11344269	          0.16493869	          0.00999999	          0.27245303	          0.43084779	          0.06625685	          0.16835821	          0.42840865	          0.07517992	          0.01221505	          0.20309563	          0.01000000	          0.00999999	          0.96101896	
          0.54217639	         -8.18418402	          4.89573401	         -8.73232645	          0.99460062	          0.91137515	          0.00272658	        -10.51391315	         -7.01827877	          0.13453247	        -29.75089075	         -2.16137077	         45.85944260	         38.54178019	          1.00642648	         -9.01111429	        -20.16337800	          1.31538539	          0.01089573	         -8.98399184	         -5.04519197	          4.94119987	          0.24570842	          0.00999999	          0.01000000	          0.01000022	          0.24724789	          0.01164295	          0.17787474	          0.00999999	          0.55481733	          0.00999999	          0.00999999	          0.08751441	          0.11945940	          0.00999999	          0.09743459	          0.14166390	          0.00999999	          0.30950414	          0.37005010	          0.05690724	          0.14460089	          0.36795517	          0.06457115	          0.01049140	          0.30745402	          0.01000000	          0.00999999	          0.97647752	
          0.55203415	         -8.05135838	          4.94256633	         -8.53597707	          1.01450002	          0.91188270	          0.00198885	         -8.45762909	         -7.21716976	         -0.07443937	        -35.04624337	         -4.32089344	         44.34697217	         38.26323412	          1.27585596	         -8.90835671	        -22.08511956	          1.71579028	         -0.06706281	         -8.85333651	         -5.34729088	          4.86602289	          0.26411034	          0.00999999	          0.03375219	          0.00999999	          0.26888376	          0.01000000	          0.15277483	          0.00999999	          0.47652607	          0.01000000	          0.00999999	          0.07516510	          0.10260227	          0.02218446	          0.08368542	          0.12167345	          0.00999999	          0.34654964	          0.31783167	          0.05087067	          0.12419600	          0.31603236	          0.05545940	          0.01000009	          0.44468848	          0.01000000	          0.00999999	          0.83868504	
          0.56189190	         -7.92676009	          4.97282910	         -8.28519918	          1.03369141	          0.91334879	          0.00130446	         -6.07115704	         -7.37336369	         -0.16982377	        -40.53188928	         -6.64916345	         41.42991802	         37.72821805	          1.59968870	         -8.70768730	        -23.57503875	          2.63107089	         -0.05123981	         -8.80451450	         -5.64730494	          4.73549378	          0.25138397	          0.04553674	          0.13403394	          0.00999999	          0.24778165	          0.01000000	          0.13121655	          0.00999999	          0.40928262	          0.12136887	          0.00999999	          0.06455842	          0.08812388	          0.25423554	          0.07187642	          0.10450390	          0.01000000	          0.32817598	          0.27298188	          0.04379237	          0.10667048	          0.27143647	          0.04763342	          0.01000007	          0.48648057	          0.01000000	          0.00999999	          0.72033669	
          0.57174965	         -7.81741459	          5.00208961	         -7.98485183	          1.05207622	          0.91573459	          0.00071204	         -3.48213591	         -7.43629888	         -0.06857815	        -46.00406526	         -8.24717780	         36.74560056	         36.94074974	          1.97477819	         -8.44970901	        -24.57546767	          3.83610672	          0.09884152	         -8.84679608	         -5.96050126	          4.55569550	          0.21591073	          0.09472087	          0.18091629	          0.00999999	          0.21281677	          0.01000000	          0.16206498	          0.00999999	          0.35152802	          0.23777344	          0.00999999	          0.06433381	          0.07568856	          0.30169732	          0.06173381	          0.08975717	          0.01000000	          0.28186649	          0.23446092	          0.03973736	          0.09161802	          0.23313358	          0.04091179	          0.01000007	          0.48204019	          0.01000000	          0.00999999	          0.61868869	
